  <svg width="256" height="256" viewBox="0 0 256 256" fill="none" xmlns="http://www.w3.org/2000/svg">
  <mask id="mask0" mask-type="alpha" maskUnits="userSpaceOnUse" x="0" y="0" width="256" height="257">
  <path fill-rule="evenodd" clip-rule="evenodd" d="M0 0H256V256H0V0Z" fill="white"/>
  </mask>
  <g mask="url(#mask0)">
  <path fill-rule="evenodd" clip-rule="evenodd" d="M234.576 128.961C227.712 197.889 215.121 232.352 150.64 245.137C101.168 250.696 67.2731 237.022 41.1341 209.562C16.6991 183.892 8.8938 151.196 8.8938 123.402C9.82351 117.359 23.8071 105.911 41.1341 98.3885C65.246 87.9207 95.8326 80.78 106.726 68.3716C125.448 47.0464 126.738 26.6816 158.422 20.0112C201.545 16.5219 241.439 60.0336 234.576 128.961Z" fill="#F5F5F5"/>
  </g>
  <path fill-rule="evenodd" clip-rule="evenodd" d="M210.774 182.566C210.575 181.16 213.451 174.435 217.814 170.567C222.178 166.699 217.319 163.869 221.78 158.64C226.244 153.411 228.127 147.064 225.153 142.899C222.178 138.735 225.847 129.016 222.872 126.438C219.897 123.86 215.037 118.307 215.533 126.438C216.03 134.569 211.201 133.182 212.474 136.949C213.749 140.718 216.227 145.181 213.749 147.66C211.269 150.139 209.959 153.411 211.16 156.585C212.36 159.758 210.179 164.319 209.683 166.303C209.186 168.286 210.774 182.566 210.774 182.566Z" fill="#171733"/>
  <path fill-rule="evenodd" clip-rule="evenodd" d="M206.509 179.609C205.914 177.013 203.051 171.758 201.556 169.376C200.063 166.997 201.75 163.228 200.162 160.749C198.576 158.27 197.881 153.61 198.973 148.75C200.063 143.891 198.675 139.726 203.038 140.122C207.402 140.519 205.943 152.915 209.251 154.502C212.558 156.089 212.955 159.758 212.062 163.625C211.17 167.493 208.422 174.732 209.251 180.087C208.096 180.385 206.509 179.609 206.509 179.609Z" fill="#1B1B3A"/>
  <path fill-rule="evenodd" clip-rule="evenodd" d="M202.827 147.564C202.156 156.344 203.46 165.013 206.688 173.208C206.752 173.372 207.021 173.3 206.956 173.134C203.741 164.97 202.437 156.314 203.105 147.564C203.118 147.385 202.84 147.386 202.827 147.564Z" fill="white"/>
  <path fill-rule="evenodd" clip-rule="evenodd" d="M218.591 137.163C216.893 142.357 216.877 147.742 216.589 153.144C216.424 156.264 216.071 159.331 215.351 162.375C214.727 165.005 214.061 167.569 213.992 170.284C213.988 170.463 214.266 170.463 214.27 170.284C214.408 164.837 216.468 159.602 216.811 154.128C217.169 148.434 217.065 142.722 218.859 137.236C218.915 137.066 218.646 136.993 218.591 137.163Z" fill="white"/>
  <path fill-rule="evenodd" clip-rule="evenodd" d="M189.551 206.743H230.292V198.594H189.551V206.743Z" fill="#E4E4EC"/>
  <path fill-rule="evenodd" clip-rule="evenodd" d="M199.153 198.497L194.428 177.575H225.699L221.198 198.721L199.153 198.497Z" fill="#1B1B3A"/>
  <path fill-rule="evenodd" clip-rule="evenodd" d="M192.63 177.627H227.496V171.466H192.63V177.627Z" fill="#222242"/>
  <path fill-rule="evenodd" clip-rule="evenodd" d="M119.658 209.108H222.722V204.021H119.658V209.108Z" fill="#14142F"/>
  <path fill-rule="evenodd" clip-rule="evenodd" d="M118.34 205.002V197.312H225.689L221.234 205.228L118.34 205.002Z" fill="#14142F"/>
  <path fill-rule="evenodd" clip-rule="evenodd" d="M135.722 197.312C136.828 195.506 139.151 192.631 140.588 192.631H200.636L233.744 132.977L237.568 136.294L203.4 197.312H135.722Z" fill="#2800CE"/>
  <path fill-rule="evenodd" clip-rule="evenodd" d="M128.001 222.477C108.685 214.487 70.651 208.075 61.9572 206.857L47.9805 216.384C69.1379 235.551 97.2047 247.227 128.001 247.227C136.114 247.227 144.038 246.413 151.695 244.869C152.453 235.93 147.314 230.467 128.001 222.477Z" fill="#2800CE"/>
  <path fill-rule="evenodd" clip-rule="evenodd" d="M58.9526 206.355C58.9526 206.355 67.8487 207.467 70.6503 208.076C69.2495 209.294 50.8492 219.164 50.8492 219.164L47.9253 216.423L58.9526 206.355Z" fill="#14142F"/>
  <path fill-rule="evenodd" clip-rule="evenodd" d="M74.5169 172.291C73.8743 161.16 72.747 129.353 72.1033 123.56C71.4596 117.768 50.4767 99.7422 45.5517 96.5271C26.5867 103.203 14.6366 114.595 9.0168 120.461C8.86116 122.954 8.77222 125.467 8.77222 128C8.77222 163.365 24.1753 195.127 48.6301 216.961C52.1365 215.024 56.3845 212.276 60.1955 208.686C68.5635 200.8 75.1606 183.421 74.5169 172.291Z" fill="#3329FF"/>
  <path fill-rule="evenodd" clip-rule="evenodd" d="M26.6309 155.128C27.8204 160.127 45.6749 194.408 74.4799 206.311C80.6689 206.548 94.2388 206.311 110.188 192.979C126.139 179.648 139.47 158.223 143.516 162.269C147.563 166.316 150.896 171.316 156.133 170.602C161.371 169.887 163.275 167.507 164.942 172.506C166.607 177.505 169.226 177.982 168.513 173.458C167.798 168.935 167.391 161.1 158.514 155.128C145.421 146.319 121.615 160.841 94.4767 172.031C88.5256 173.22 84.2398 173.935 75.1948 158.699C66.1475 143.463 60.1964 138.226 60.1964 138.226C60.1964 138.226 55.1969 144.891 44.4853 149.891C33.7726 154.89 26.6309 155.128 26.6309 155.128Z" fill="#FFC49F"/>
  <path fill-rule="evenodd" clip-rule="evenodd" d="M102.995 98.9813C95.5879 110.733 80.0559 114.257 68.3026 106.849C56.5505 99.4416 53.0274 83.9095 60.4349 72.1563C67.8424 60.4041 83.3755 56.881 95.1277 64.2885C106.88 71.696 110.403 87.2281 102.995 98.9813Z" fill="#FFC49F"/>
  <path fill-rule="evenodd" clip-rule="evenodd" d="M64.1899 99.4976C55.7063 97.7833 49.7496 80.9994 53.2683 68.7259C56.7869 56.4523 70.6836 46.7958 82.0544 52.2099C93.4252 57.623 102.719 52.7502 107.503 57.3517C112.287 61.9532 106.907 79.1528 94.1934 73.0994C90.4035 71.2951 80.9282 66.7837 84.8993 77.9733C87.3051 84.7537 88.4024 89.1406 93.4441 92.8827C97.8633 96.1624 105.812 92.806 105.812 92.806C105.812 92.806 102.769 120.974 89.5909 120.539C81.2362 120.264 78.7537 112.755 77.9521 107.212C76.8682 99.7232 81.2617 75.0072 72.6258 74.4546C61.345 73.7342 73.3028 85.2385 71.9954 90.428C70.6869 95.6165 68.7903 100.427 64.1899 99.4976Z" fill="#FF5200"/>
  </svg>
